<svg width="45" height="45" viewBox="0 0 45 45" fill="none" xmlns="http://www.w3.org/2000/svg">
<path d="M37.5269 12.4149C35.0186 8.67736 31.2074 6.00866 26.8373 4.92979C22.4672 3.85091 17.852 4.4393 13.8924 6.5801C9.93277 8.7209 6.91306 12.2604 5.42268 16.5078C3.93231 20.7552 4.07824 25.4056 5.832 29.5511" stroke="#FF8E29" stroke-width="1.85985"/>
<path d="M4.93545 29.9721L6.72373 29.1853C4.8639 24.7503 4.72085 14.8072 11.5164 9.29923C5.15005 13.0189 2.21722 24.178 4.93545 29.9721Z" fill="#FFB069"/>
<path d="M7.25551 32.4001C9.68356 36.1904 13.437 38.9398 17.783 40.1116C22.1291 41.2834 26.7559 40.7936 30.7602 38.7378C34.7646 36.6819 37.8591 33.2076 39.4397 28.993C41.0204 24.7784 40.9737 20.126 39.3087 15.9439" stroke="#050F24" stroke-width="1.85985"/>
<path d="M13.5909 16.9532C14.95 6.15181 32.7616 15.451 40.201 10.4438C38.1981 20.6729 20.6011 12.0175 13.5909 16.9532Z" fill="#FF8E29"/>
<path d="M13.5909 16.9532C19.9573 9.87149 21.8887 15.7372 36.5529 14.9503C29.1135 17.6685 19.7427 13.0999 13.5909 16.9532Z" fill="#050F24"/>
<path d="M8.72663 25.6802C10.4434 12.8759 28.8988 23.3196 36.3382 18.3123C34.3353 29.5429 16.3806 19.5284 8.72663 25.6802Z" fill="#FF8E29"/>
<path d="M8.72662 25.7024C13.9485 17.5255 18.3835 23.6058 31.9032 23.4627C24.6068 25.5371 15.093 21.0306 8.72662 25.7024Z" fill="#050F24"/>
<path d="M4.86386 35.8378C6.22298 20.1007 27.4681 31.4028 34.6929 26.6101C33.3338 38.9852 14.8069 26.2525 4.86386 35.8378Z" fill="#FF8E29"/>
<path d="M4.86386 35.8378C9.29888 24.9649 18.0974 31.9751 32.3324 31.1882C28.1835 35.3371 12.7324 27.9692 4.86386 35.8378Z" fill="#050F24"/>
</svg>
